 http://img13.imageshack.us/img13/1001/daybreakers2009.jpg

Country.......: Australia, USA
Genre.........: Thriller, Sci-Fi, Horror, Akcja
Date release..: 11.09.2009 [World]
Director......: Michael Spierig, Peter Spierig
Writers.......: Michael Spierig, Peter Spierig
Duration......: 94 min.
More..........: http://www.imdb.com/title/tt0433362
Trailer.......: http://www.imdb.com/video/imdb/vi1687225369
Trailer.......:

Pilot :
In the year 2019, a plague has transformed most every human into vampires. Faced with a dwindling blood supply, the fractured dominant race plots their survival; meanwhile, a researcher works with a covert band of vamps on a way to save humankind. 

Cats :
Ethan Hawke   	 ...  	Edward Dalton
Willem Dafoe 	... 	Lionel Elvis Cormac
Sam Neill 	... 	Charles Bromley
Claudia Karvan 	... 	Audrey Bennett
Michael Dorman 	... 	Frankie Dalton
Isabel Lucas 	... 	Alison Bromley
Vince Colosimo 	... 	Christopher Caruso
Callum McLean 	... 	Vampire School Kid
Harriet Minto-Day 	... 	Lisa Barrett
Jarrad Pon 	... 	Vampire School Kid
Sahaj Dumpleton 	... 	Homeless Vampire
Victoria Williams 	... 	Vampire School Kid
Jay Laga aia 	... 	Senator Turner
Zoe White 	... 	Vampire School Kid
Gabriella Di Labio 	... 	Businesswoman

Data Technical :
!!! SAMPLE !!!
Audio.....: Lector Polish
Subtitles.: None
Format                           : AVI
Format/Info                      : Audio Video Interleave
File size                        : 700 MiB
Duration                         : 1h 34mn
Overall bit rate                 : 1 038 Kbps
Writing application              : VirtualDubMod 1.5.10.2 (build 2540/release)
Writing library                  : VirtualDubMod build 2540/release
Video
ID                               : 0
Format                           : MPEG-4 Visual
Format profile                   : Advanced Simple@L5
Format settings, BVOP            : Yes
Format settings, QPel            : No
Format settings, GMC             : No warppoints
Format settings, Matrix          : Default (H.263)
Codec ID                         : XVID
Codec ID/Hint                    : XviD
Duration                         : 1h 34mn
Bit rate                         : 897 Kbps
Width                            : 640 pixels
Height                           : 272 pixels
Display aspect ratio             : 2.35:1
Frame rate                       : 25.000 fps
Color space                      : YUV
Chroma subsampling               : 4:2:0
Bit depth                        : 8 bits
Scan type                        : Progressive
Bits/(Pixel*Frame)               : 0.206
Stream size                      : 605 MiB (86%)
Writing library                  : XviD 1.2.1 (UTC 2008-12-04)
Audio
ID                               : 1
Format                           : MPEG Audio
Format version                   : Version 1
Format profile                   : Layer 3
Mode                             : Joint stereo
Mode extension                   : MS Stereo
Codec ID                         : 55
Codec ID/Hint                    : MP3
Duration                         : 1h 34mn
Bit rate mode                    : Variable
Bit rate                         : 128 Kbps
Channel(s)                       : 2 channels
Sampling rate                    : 48.0 KHz
Stream size                      : 86.2 MiB (12%)
Alignment                        : Aligned on interleaves
Interleave, duration             : 24 ms (0.60 video frame)
Interleave, preload duration     : 513 ms
Writing library                  : LAME3.90.
Encoding settings                : -m j -V 4 -q 2 -lowpass 17.6 --abr 128

Screen : 
http://img849.imageshack.us/img849/3802/daybreakers2009s1.jpg 
http://img534.imageshack.us/img534/9219/daybreakers2009s2.jpg 
http://img5.imageshack.us/img5/2790/daybreakers2009s3.jpg 
http://img690.imageshack.us/img690/8837/daybreakers2009s4.jpg 
http://img155.imageshack.us/img155/9484/daybreakers2009s5.jpg